<svg width="500" height="500" viewBox="0 0 500 500" fill="none" xmlns="http://www.w3.org/2000/svg">
<path d="M250 471.624C357.55 471.624 444.736 463.327 444.736 453.093C444.736 442.859 357.55 434.562 250 434.562C142.45 434.562 55.2642 442.859 55.2642 453.093C55.2642 463.327 142.45 471.624 250 471.624Z" fill="#EBEBEB"/>
<path d="M362.317 448.227H137.683C132.045 448.227 127.475 443.657 127.475 438.019V91.975C127.475 86.337 132.045 81.767 137.683 81.767H362.316C367.954 81.767 372.524 86.337 372.524 91.975V438.02C372.525 443.657 367.954 448.227 362.317 448.227Z" fill="#263238"/>
<path d="M223.238 97.5319V96.2209C223.238 95.5299 223.798 94.9709 224.488 94.9709H275.351C276.042 94.9709 276.601 95.5309 276.601 96.2209V97.5319C276.601 98.2229 276.041 98.7819 275.351 98.7819H224.488C223.797 98.7829 223.238 98.2229 223.238 97.5319Z" fill="#455A64"/>
<path d="M249.919 442.782C246.107 442.782 243.018 439.692 243.018 435.881C243.018 432.069 246.108 428.979 249.919 428.979C253.731 428.979 256.821 432.069 256.821 435.881C256.821 439.693 253.731 442.782 249.919 442.782Z" fill="#455A64"/>
<path d="M362.178 107.643H137.947V423.068H362.178V107.643Z" fill="#EBEBEB"/>
<path d="M328.361 107.647H241.346V113.137H328.361V107.647Z" fill="#C7C7C7"/>
<path d="M230.42 154.247V208.087H169.3V222.807H137.95V226.547H169.3V282.187L180.56 307.917H141.66V423.067H149.14V397.537H180.34V393.807H149.14V315.397H183.82L192.63 335.527C183.21 339.637 176.6 349.047 176.6 359.967C176.6 373.937 187.4 385.417 201.09 386.507H201.11L219.4 416.397L212.73 423.067H223.31L223.42 422.957L223.49 423.067H232.26L209.48 385.877C221.17 383.057 229.9 372.517 229.9 359.967C229.9 356.637 229.29 353.447 228.16 350.507L280.39 325.667H332.06V388.827L297.83 423.067H303.12L332.06 394.117V423.067H339.54V325.667H362.18V318.187H303.57L259.76 270.567H362.18V266.827H256.32L209.17 215.567H285.42L311.18 188.247L362.18 239.247V228.677L316.32 182.817L340.25 157.437V107.647H332.77V154.467L282.19 208.087H262.74V171.057H270.47V167.317H259V208.087H237.9V107.647H230.42V146.767H137.95V154.247H230.42ZM203.25 340.797C213.82 340.797 222.42 349.397 222.42 359.967C222.42 370.537 213.82 379.137 203.25 379.137C192.68 379.137 184.08 370.537 184.08 359.967C184.08 349.397 192.68 340.797 203.25 340.797ZM176.78 280.607V215.567H199L293.4 318.187H278.7L224.54 343.947C219.66 337.497 211.94 333.317 203.25 333.317C202.13 333.317 201.01 333.397 199.92 333.527L176.78 280.607Z" fill="#A6A6A6"/>
<path d="M194.063 221.238H183.189V232.112H194.063V221.238Z" fill="#C7C7C7"/>
<path d="M296.19 262.939V241.938H288.55V233.165H275.102V262.939H296.19Z" fill="#C7C7C7"/>
<path d="M241.346 116.566V128.792H247.498V141.654H258.891V116.566H241.346Z" fill="#C7C7C7"/>
<path d="M328.361 116.566H314.98V134.888H328.361V116.566Z" fill="#C7C7C7"/>
<path d="M265.689 204.914V189.303H294.948L279.144 205.107L265.689 204.914Z" fill="#C7C7C7"/>
<path d="M256.045 190.408H241.346V205.107H256.045V190.408Z" fill="#C7C7C7"/>
<path d="M149.759 194.438H138.008V218.88H149.759V194.438Z" fill="#C7C7C7"/>
<path d="M166.204 207.633H152.929V218.881H166.204V207.633Z" fill="#C7C7C7"/>
<path d="M226.908 157.182H209.202V173.467H226.908V157.182Z" fill="#C7C7C7"/>
<path d="M226.909 176.662V205.107H205.254L191.446 191.299V176.662H226.909Z" fill="#C7C7C7"/>
<path d="M187.536 194.438L198.413 205.316H169.383V194.438H187.536Z" fill="#C7C7C7"/>
<path d="M180.697 318.775H152.929V331.875H185.981L180.697 318.775Z" fill="#C7C7C7"/>
<path d="M164.844 338.299H152.929V356.328H164.844V338.299Z" fill="#C7C7C7"/>
<path d="M180.904 388.655V382.36C175.639 376.413 172.099 368.943 171.041 360.675H152.924V388.655H180.904Z" fill="#C7C7C7"/>
<path d="M245.926 328.009L234.547 303.431H220.688L197.02 314.411L203.202 327.921H203.252C212.001 327.921 219.953 331.423 225.736 337.107L245.926 328.009Z" fill="#C7C7C7"/>
<path d="M291.672 297.395L306.691 313.721H336.201V297.395H291.672Z" fill="#C7C7C7"/>
<path d="M358.774 297.395H340.11V313.721H358.774V297.395Z" fill="#C7C7C7"/>
<path d="M177.75 413.837V423.067H205.09L212.69 415.037L197.17 389.687L188.82 396.697V413.837H177.75Z" fill="#C7C7C7"/>
<path d="M265.4 386.227L242.946 362.819L234.334 369.549C231.779 377.862 225.971 384.754 218.406 388.73L237.188 419.415L265.4 386.227Z" fill="#C7C7C7"/>
<path d="M240.943 352.487L280.386 332.988H300.06V367.287L269.39 382.434L240.943 352.487Z" fill="#C7C7C7"/>
<path d="M327.883 404.819V421.766H310.939L327.883 404.819Z" fill="#C7C7C7"/>
<path d="M183.189 236.652V279.758L195.22 309.182L217.169 298.307H268.354L210.952 236.652H183.189Z" fill="#C7C7C7"/>
<path d="M308.038 174.997H265.689V185.609H298.028L308.038 174.997Z" fill="#C7C7C7"/>
<path d="M166.204 230.886H138.008V261.95H166.204V230.886Z" fill="#C7C7C7"/>
<path d="M166.204 266.943H152.929V280.219H166.204V266.943Z" fill="#C7C7C7"/>
<path d="M166.204 284.251H145.521V304.383H174.896L166.204 284.251Z" fill="#C7C7C7"/>
<path d="M149.759 266.943H138.008V270.953H149.759V266.943Z" fill="#C7C7C7"/>
<path d="M149.759 273.58H138.008V280.218H149.759V273.58Z" fill="#C7C7C7"/>
<path d="M327.138 332.988H305.512V355.423H327.138V332.988Z" fill="#C7C7C7"/>
<path d="M327.138 358.918H305.512V366.793H327.138V358.918Z" fill="#C7C7C7"/>
<path d="M242.4 423.067H292.05L300.79 414.327L269.73 389.687L242.4 423.067Z" fill="#C7C7C7"/>
<path d="M303.514 410.621L316.325 398.326L300.788 384.798V372.629L273.397 386.583L303.514 410.621Z" fill="#C7C7C7"/>
<path d="M327.138 386.859L319.411 394.114L305.512 382.434V370.265H327.138V386.859Z" fill="#C7C7C7"/>
<path d="M172.2 401.817H152.93V423.067H172.2V401.817Z" fill="#C7C7C7"/>
<path d="M184.35 403.58H177.75V410.18H184.35V403.58Z" fill="#C7C7C7"/>
<path d="M362.18 333.087H345.13V360.777H362.18V333.087Z" fill="#C7C7C7"/>
<path d="M345.13 366.887V386.087L362.18 396.497V366.887H345.13Z" fill="#C7C7C7"/>
<path d="M345.03 392.597V411.937H362.18V402.247L345.03 392.597Z" fill="#C7C7C7"/>
<path d="M352.42 415.037H345.03V423.067H352.42V415.037Z" fill="#C7C7C7"/>
<path d="M362.18 415.037H356.15V423.067H362.18V415.037Z" fill="#C7C7C7"/>
<path d="M362.18 107.647H345.86V139.887H362.18V107.647Z" fill="#C7C7C7"/>
<path d="M183.9 117.397V142.277H225.77V107.647H194.51L183.9 117.397Z" fill="#C7C7C7"/>
<path d="M180.349 128.923H155.689V142.276H180.349V128.923Z" fill="#C7C7C7"/>
<path d="M180.349 118.017H155.689V125.477H180.349V118.017Z" fill="#C7C7C7"/>
<path d="M147.437 118.428H152.549V142.276H141.152V125.065L147.437 118.428Z" fill="#C7C7C7"/>
<path d="M141.15 107.647V115.017H182.65L190.51 107.647H141.15Z" fill="#C7C7C7"/>
<path d="M270.771 275.094L288.55 293.768H305.513V275.094H270.771Z" fill="#C7C7C7"/>
<path d="M329.211 285.18H309.041V293.768H329.211V285.18Z" fill="#C7C7C7"/>
<path d="M318.126 275.094H309.041V282.893H318.126V275.094Z" fill="#C7C7C7"/>
<path d="M329.21 275.094H320.381V282.893H329.21V275.094Z" fill="#C7C7C7"/>
<path d="M344.406 275.094H331.662V293.768H344.406V275.094Z" fill="#C7C7C7"/>
<path d="M358.602 293.768H347.567V281L352.851 275.094H358.602V293.768Z" fill="#C7C7C7"/>
<path d="M239.86 303.432H268.354V317.058L250.137 325.325L239.86 303.432Z" fill="#C7C7C7"/>
<path d="M204.325 372.809C211.364 372.219 216.591 366.035 216.002 358.997C215.412 351.959 209.228 346.731 202.19 347.321C195.151 347.91 189.923 354.094 190.513 361.133C191.103 368.171 197.287 373.399 204.325 372.809Z" fill="#C7C7C7"/>
<path d="M158.894 157.182H138.008V192.066H149.759L158.894 180.138V157.182Z" fill="#C7C7C7"/>
<path d="M166.204 184.277H158.894L152.929 192.066V204.361H166.204V184.277Z" fill="#C7C7C7"/>
<path d="M174.169 157.182H162.549V167.01H174.169V157.182Z" fill="#C7C7C7"/>
<path d="M187.223 190.889V157.188H176.779V184.283H169.388V190.889H187.223Z" fill="#C7C7C7"/>
<path d="M206.228 157.182H191.446V172.56H206.228V157.182Z" fill="#C7C7C7"/>
<path d="M174.169 168.891H162.536V181.318H174.169V168.891Z" fill="#C7C7C7"/>
<path d="M324.923 209.806V262.94H360.616V244.884L324.923 209.806Z" fill="#C7C7C7"/>
<path d="M321.335 241.938H299.369V262.94H321.335V241.938Z" fill="#C7C7C7"/>
<path d="M219.173 219.318L242.085 244.25H270.843V219.318H219.173Z" fill="#C7C7C7"/>
<path d="M245.351 247.132L259.891 262.94H270.77V247.132H245.351Z" fill="#C7C7C7"/>
<path d="M288.549 219.318H275.102V229.733H288.549V219.318Z" fill="#C7C7C7"/>
<path d="M321.34 229.297V205.882L310.71 194.441L292.188 214.307V237.028H314.149V229.297H321.34Z" fill="#C7C7C7"/>
<path d="M340.279 162.776L321.452 183.324L342.818 204.195L354.617 191.468L340.279 162.776Z" fill="#C7C7C7"/>
<path d="M345.24 206.857L362.18 223.697V194.577H356.62L345.24 206.857Z" fill="#C7C7C7"/>
<path d="M343.061 159.297L352.381 179.247H362.181V143.037H345.861V156.297L343.061 159.297Z" fill="#C7C7C7"/>
<path d="M362.18 181.687H356.84V191.737H362.18V181.687Z" fill="#C7C7C7"/>
<path d="M328.361 138.307H294.948V171.619H311.729L328.361 153.349V138.307Z" fill="#C7C7C7"/>
<path d="M291.046 150.504H274.711V171.619H291.046V150.504Z" fill="#C7C7C7"/>
<path d="M311.731 134.891V116.566H274.715V147.853H291.042V134.891H311.731Z" fill="#C7C7C7"/>
<path d="M272.602 116.566H260.873V134.445H272.602V116.566Z" fill="#C7C7C7"/>
<path d="M272.603 143.934H241.346V159.302H272.603V143.934Z" fill="#C7C7C7"/>
<path d="M272.602 136.667H260.873V141.654H272.602V136.667Z" fill="#C7C7C7"/>
<path d="M256.044 187.473H247.498L241.346 181.634V164.642H256.044V187.473Z" fill="#C7C7C7"/>
<path d="M151.584 404.437C151.584 404.437 148.97 440.691 148.969 440.717C148.933 447.817 149.028 454.043 149.378 457.259C149.377 457.276 149.377 457.293 149.385 457.311C149.516 458.525 149.682 459.299 149.898 459.507C149.915 459.525 149.923 459.542 149.939 459.552C152.045 460.994 208.778 462.936 210.779 462.338C212.788 461.749 211.233 455.989 209.091 454.157C206.932 452.324 185.552 441.867 185.552 441.867L187.814 405.629L151.584 404.437Z" fill="#FFBE9D"/>
<path d="M148.968 433.094C148.968 433.094 148.97 440.69 148.969 440.716C148.933 447.816 149.028 454.042 149.378 457.258C149.377 457.275 149.377 457.292 149.385 457.31C149.585 458.509 149.768 459.302 149.898 459.506C149.915 459.524 149.923 459.541 149.939 459.551C152.045 460.993 208.778 462.935 210.779 462.337C212.788 461.748 211.233 455.988 209.091 454.156C206.932 452.323 185.552 441.866 185.552 441.866L185.657 434.13L148.968 433.094Z" fill="white"/>
<path d="M210.779 462.338C208.775 462.938 152.047 460.997 149.936 459.55C149.124 459.014 148.925 450.732 148.972 440.717C148.973 440.612 148.975 440.508 148.976 440.403L185.588 441.247L185.553 441.868C185.553 441.868 206.934 452.323 209.09 454.159C211.227 455.987 212.784 461.747 210.779 462.338Z" fill="#288AEA"/>
<path d="M210.212 460.117C200.657 459.555 162.068 458.189 152.58 458.36C152.503 458.361 152.501 458.414 152.578 458.42C162.036 459.184 200.636 460.237 210.207 460.274C210.409 460.274 210.414 460.129 210.212 460.117Z" fill="#263238"/>
<path d="M188.624 442.083C184.885 441.252 180.263 441.672 177.296 444.255C177.181 444.355 177.325 444.517 177.448 444.483C181.201 443.44 184.693 442.807 188.593 442.558C188.868 442.541 188.892 442.143 188.624 442.083Z" fill="#263238"/>
<path d="M191.284 443.813C187.545 442.982 182.923 443.402 179.956 445.985C179.841 446.085 179.985 446.247 180.108 446.213C183.861 445.17 187.353 444.537 191.253 444.288C191.528 444.271 191.552 443.873 191.284 443.813Z" fill="#263238"/>
<path d="M193.945 445.543C190.206 444.712 185.584 445.132 182.617 447.715C182.502 447.815 182.646 447.977 182.769 447.943C186.522 446.9 190.014 446.267 193.914 446.019C194.188 446 194.212 445.603 193.945 445.543Z" fill="#263238"/>
<path d="M146.785 442.281L186.496 441.488C186.496 441.488 191.339 370.03 190.436 346.206C189.456 320.328 178.34 243.33 178.34 243.33H144.802C144.802 243.33 153.375 320.629 153.557 346.518C153.725 370.517 146.785 442.281 146.785 442.281Z" fill="#37474F"/>
<path d="M171.751 243.331L151.605 313.031C149.22 280.046 144.802 243.331 144.802 243.331H171.751Z" fill="#263238"/>
<path d="M151.168 247.125L153.298 270.109L155.27 293.107C156.533 308.444 157.732 323.785 158.645 339.156C158.869 342.997 159.004 346.857 158.95 350.719C158.867 354.573 158.713 358.421 158.518 362.265C158.122 369.954 157.626 377.634 157.035 385.307C156.453 392.98 155.834 400.65 155.173 408.316L153.03 431.3L154.746 408.282C155.319 400.61 155.864 392.936 156.364 385.26C156.849 377.583 157.369 369.908 157.723 362.227C157.905 358.387 158.045 354.546 158.115 350.707C158.157 346.874 158.006 343.042 157.773 339.203C156.934 323.848 155.722 308.505 154.603 293.16L151.168 247.125Z" fill="#263238"/>
<path d="M184.836 434.864C178.636 434.81 180.416 434.738 174.216 434.754C171.182 434.761 151.243 434.83 148.415 435.333C148.353 435.344 148.354 435.45 148.417 435.459C151.258 435.894 171.191 435.479 174.225 435.413C180.424 435.278 178.642 435.249 184.839 435.045C184.955 435.041 184.953 434.865 184.836 434.864Z" fill="#263238"/>
<path d="M87.0313 384.99C87.0313 384.99 67.8753 416.125 67.8623 416.148C64.7513 422.53 62.1373 428.181 61.0573 431.231C61.0493 431.246 61.0413 431.261 61.0403 431.281C60.6313 432.431 60.4453 433.202 60.5503 433.482C60.5573 433.505 60.5573 433.525 60.5683 433.54C61.8403 435.753 112.119 462.104 114.181 462.433C116.247 462.773 117.343 456.908 116.208 454.329C115.057 451.742 100.327 433.047 100.327 433.047L119.159 401.773L87.0313 384.99Z" fill="#FFBE9D"/>
<path d="M60.5562 433.486C60.5562 433.504 60.5562 433.523 60.5652 433.541C61.8412 435.754 112.119 462.104 114.185 462.435C116.251 462.775 117.343 456.908 116.214 454.328C115.057 451.739 100.33 433.045 100.33 433.045L103.69 427.463C95.4732 423.083 80.5342 415.389 71.2612 410.624C69.2412 413.902 67.8642 416.142 67.8642 416.151C64.7512 422.532 62.1352 428.178 61.0602 431.227C61.0512 431.245 61.0422 431.264 61.0422 431.282C60.6292 432.43 60.4452 433.201 60.5562 433.486Z" fill="white"/>
<path d="M114.183 462.434C112.117 462.106 61.8421 435.757 60.5671 433.538C60.0681 432.703 63.4801 425.154 67.8651 416.15C67.9121 416.056 67.9581 415.963 68.0051 415.869L100.63 432.506L100.329 433.05C100.329 433.05 115.062 451.743 116.208 454.331C117.341 456.906 116.246 462.771 114.183 462.434Z" fill="#288AEA"/>
<path d="M114.636 460.187C106.27 455.537 72.0902 437.573 63.4672 433.612C63.3972 433.58 63.3722 433.626 63.4392 433.665C71.6302 438.455 105.955 456.141 114.564 460.325C114.745 460.414 114.812 460.285 114.636 460.187Z" fill="#263238"/>
<path d="M103.003 434.576C99.9941 432.206 95.6471 430.58 91.8541 431.621C91.7071 431.661 91.7661 431.869 91.8921 431.892C95.7261 432.579 99.1471 433.524 102.769 434.991C103.024 435.094 103.219 434.746 103.003 434.576Z" fill="#263238"/>
<path d="M104.65 437.288C101.641 434.918 97.2941 433.292 93.5011 434.332C93.3541 434.372 93.4131 434.581 93.5391 434.603C97.3731 435.291 100.794 436.235 104.416 437.702C104.671 437.806 104.866 437.458 104.65 437.288Z" fill="#263238"/>
<path d="M106.297 440.001C103.288 437.631 98.941 436.005 95.148 437.045C95.001 437.085 95.06 437.294 95.186 437.316C99.02 438.003 102.441 438.948 106.063 440.415C106.318 440.518 106.512 440.17 106.297 440.001Z" fill="#263238"/>
<path d="M174.909 243.298C174.909 243.298 174.909 243.307 174.9 243.332C174.754 244.022 172.408 254.902 169.977 264.248C168.21 271.076 166.391 277.077 165.347 277.698C164.166 278.396 158.407 280.948 156.475 281.75C156.475 281.75 143.523 346.408 136.685 366.457C130.375 384.959 104.265 434.411 104.265 434.411L66.3833 415.271C66.3833 415.271 95.9663 365.083 99.0773 356.076C103.898 342.116 121.966 273.954 121.966 273.954C121.966 273.954 121.828 252.614 129.015 243.297H174.909V243.298Z" fill="#37474F"/>
<path d="M103.708 427.026C98.2952 424.002 99.8912 424.793 94.4452 421.83C91.7802 420.38 74.2572 410.867 71.5342 409.95C71.4742 409.93 71.4242 410.023 71.4752 410.062C73.7582 411.807 91.4432 421.014 94.1362 422.412C99.6392 425.27 98.0902 424.39 103.624 427.185C103.727 427.238 103.81 427.082 103.708 427.026Z" fill="#263238"/>
<path d="M131.687 268.019C132.724 267.753 133.833 267.668 134.891 267.501C135.746 267.366 136.597 267.215 137.442 267.029C139.033 266.678 140.643 266.147 141.944 265.134C143.409 263.993 144.154 262.263 144.863 260.6C145.284 259.612 145.718 258.631 146.157 257.652C146.37 257.177 146.585 256.704 146.805 256.232C147.063 255.68 147.416 255.105 147.605 254.528C147.632 254.444 147.768 254.489 147.734 254.567C147.567 254.952 147.496 255.39 147.374 255.794C147.23 256.27 147.094 256.748 146.947 257.223C146.684 258.071 146.427 258.921 146.148 259.764C145.645 261.277 145.199 262.864 144.344 264.225C142.78 266.715 139.984 267.718 137.188 268.071C136.387 268.172 135.579 268.229 134.772 268.275C133.774 268.332 132.713 268.421 131.718 268.298C131.566 268.279 131.523 268.061 131.687 268.019Z" fill="#263238"/>
<path d="M168.412 276.172C164.301 277.587 160.333 279.595 156.54 281.701C156.391 281.784 156.489 282.015 156.65 281.945C160.649 280.228 164.728 278.584 168.628 276.649C168.934 276.497 168.728 276.063 168.412 276.172Z" fill="#263238"/>
<path d="M169.616 248.778C169.605 248.64 169.363 248.609 169.364 248.758C169.396 253.506 169.094 257.683 168.693 262.121C168.507 264.181 166.85 275.566 163.278 274.736C162.68 274.597 162.375 274.008 162.281 273.107C162.168 272.023 162.576 270.693 162.755 269.615C163.152 267.232 163.47 264.841 163.674 262.433C164.056 257.939 164.075 253.445 163.529 248.965C163.511 248.818 163.299 248.829 163.299 248.978C163.304 255.199 163.141 261.408 162.211 267.57C161.764 270.531 160.272 274.989 163.369 275.445C166.524 275.909 168.564 268.442 168.949 266.399C170.024 260.699 170.067 254.545 169.616 248.778Z" fill="#263238"/>
<path d="M163.373 275.043C163.05 275.807 162.791 276.603 162.57 277.403C162.399 278.024 162.165 278.695 162.236 279.343C162.25 279.469 162.416 279.481 162.483 279.396C162.902 278.865 163.079 278.138 163.313 277.508C163.584 276.778 163.872 276.053 164.123 275.316C164.289 274.826 163.572 274.571 163.373 275.043Z" fill="#263238"/>
<path d="M76.6112 408.988C82.0032 398.837 87.5612 388.778 93.1412 378.729C95.8912 373.776 98.7612 368.878 101.387 363.857C103.981 358.896 105.74 353.685 107.381 348.349C110.716 337.507 113.877 326.612 116.858 315.667C119.84 304.723 122.626 293.725 125.259 282.692C125.918 279.933 126.638 277.174 127.17 274.387C127.722 271.491 127.556 268.785 127.157 265.884C126.792 263.232 126.689 260.622 127.096 257.967C127.498 255.343 128.154 252.763 128.947 250.231C129.365 248.897 129.818 247.575 130.276 246.255C130.327 246.107 130.556 246.174 130.51 246.326C128.877 251.67 127.207 257.073 127.558 262.732C127.727 265.453 128.447 268.124 128.4 270.862C128.354 273.586 127.637 276.257 127.025 278.895C124.451 289.998 121.672 301.051 118.726 312.061C115.78 323.07 112.655 334.031 109.349 344.938C107.742 350.241 106.238 355.629 103.957 360.692C101.672 365.764 98.7782 370.555 96.0552 375.399C90.4272 385.409 84.7532 395.394 78.9522 405.304C78.2172 406.56 77.4752 407.811 76.7352 409.064C76.6852 409.144 76.5672 409.069 76.6112 408.988Z" fill="#263238"/>
<path d="M156.04 185.405C162.218 194.002 195.174 210.436 204.949 210.042C218.739 209.486 236.71 202.074 243.264 198.386C246.12 196.779 239.392 174.103 236.118 175.352C229.106 178.027 207.882 186.84 205.272 187.074C202.662 187.307 181.624 183.709 170.619 180.485C155.854 176.158 152.915 181.056 156.04 185.405Z" fill="#FFBE9D"/>
<path d="M240.017 171.234C243.948 170.625 248.407 169.612 252.488 170.46C256.569 171.308 258.95 177.355 258.659 178.903C258.367 180.451 255.004 189.816 250.909 189.044C246.814 188.273 250.683 181.321 250.689 180.442C250.695 179.563 250.745 178.447 249.957 178.381C249.169 178.315 234.44 182.182 234.44 182.182L240.017 171.234Z" fill="#FFBE9D"/>
<path d="M240.172 171.847C240.404 171.891 252.19 169.63 256.271 170.478C260.352 171.326 262.733 177.373 262.442 178.921C262.151 180.469 258.787 189.834 254.692 189.062C250.597 188.291 254.466 181.339 254.472 180.46C254.478 179.581 254.528 178.465 253.74 178.399C252.952 178.333 238.223 182.2 238.223 182.2L240.172 171.847Z" fill="#FFBE9D"/>
<path d="M253.4 188.282C253.017 187.54 253.113 186.549 253.174 185.734C253.24 184.844 253.479 183.971 253.815 183.147C254.107 182.43 254.565 181.749 254.736 180.988C254.894 180.284 254.796 179.395 254.573 178.715C254.365 178.081 253.727 178.164 253.175 178.249C252.363 178.374 251.549 178.614 250.759 178.836C249.903 179.076 249.052 179.337 248.201 179.591C247.326 179.853 246.413 180.077 245.577 180.45C245.515 180.478 245.533 180.582 245.606 180.571C246.369 180.457 247.114 180.22 247.86 180.028C248.706 179.81 249.554 179.597 250.405 179.396C251.199 179.208 251.985 178.977 252.782 178.803C253.064 178.741 253.638 178.56 253.922 178.683C254.222 178.812 254.231 179.609 254.254 179.872C254.325 180.698 254.055 181.336 253.695 182.058C253.349 182.753 253.052 183.472 252.849 184.223C252.662 184.914 252.544 185.671 252.618 186.389C252.689 187.079 253.034 187.69 253.263 188.334C253.294 188.427 253.443 188.366 253.4 188.282Z" fill="#263238"/>
<path d="M225.158 180.15C225.158 180.15 238.454 171.944 241.204 170.335C246.719 167.106 268.215 162.712 271.052 162.941C273.889 163.17 273.82 169.062 259.157 172.435C251.429 174.213 249.388 178.063 249.098 180.355C248.807 182.647 250.175 187.278 254.007 187.893C257.838 188.508 261.358 183.41 264.978 183.452C268.598 183.494 265.075 189.478 261.904 192.721C258.733 195.964 253.671 198.178 250.141 198.793C246.612 199.409 235.581 201.883 235.581 201.883L225.158 180.15Z" fill="#FFBE9D"/>
<path d="M259.24 186.104C257.596 186.946 255.698 188.079 253.796 187.795C251.829 187.501 250.799 185.994 250.192 184.232C249.58 182.455 249.394 180.526 250.184 178.772C250.896 177.193 252.156 175.917 253.601 174.988C255.388 173.84 257.384 173.112 259.413 172.524C259.504 172.498 259.453 172.364 259.36 172.386C257.458 172.84 251.582 174.046 249.583 178.659C248.767 180.544 249.027 182.411 249.633 184.23C250.192 185.906 251.146 187.601 252.966 188.099C255.184 188.706 257.468 187.239 259.343 186.177C259.425 186.13 259.326 186.059 259.24 186.104Z" fill="#263238"/>
<path d="M237.945 204.149C237.881 203.572 230.143 175.88 230.143 175.88C230.143 175.88 208.659 185.587 205.565 186.233C202.471 186.879 173.051 180.769 163.206 178.317C152.681 175.695 149.043 183.428 163.135 192.608C177.227 201.788 195.131 210.395 203.414 210.864C211.436 211.318 237.945 204.149 237.945 204.149Z" fill="#288AEA"/>
<path d="M212.697 191.07H211.653C210.678 191.07 209.885 190.277 209.885 189.302C209.885 188.518 209.246 187.879 208.462 187.879H207.36V187.534H208.462C209.437 187.534 210.23 188.327 210.23 189.302C210.23 190.086 210.868 190.725 211.653 190.725H212.697V191.07ZM237.33 201.79C237.05 201.61 236.73 201.51 236.38 201.51H235.28V201.86H236.38C236.83 201.86 237.23 202.07 237.49 202.39C237.44 202.2 237.38 202 237.33 201.79ZM173.75 198.68L173.53 198.89C173.85 199.07 174.18 199.25 174.5 199.43L173.75 198.68ZM216.054 208.208L215.316 207.47C214.761 206.915 214.761 206.013 215.316 205.458C216.005 204.768 216.005 203.647 215.316 202.958L214.537 202.179L214.293 202.423L215.072 203.202C215.626 203.756 215.626 204.659 215.072 205.214C214.383 205.903 214.383 207.025 215.072 207.714L215.81 208.452L216.054 208.208ZM159.99 180.34C159.44 179.79 159.44 178.89 159.99 178.33C160.14 178.19 160.25 178.02 160.33 177.84C160.2 177.83 160.07 177.82 159.95 177.82C159.9 177.92 159.83 178.01 159.75 178.09C159.06 178.78 159.06 179.9 159.75 180.59L160.49 181.33L160.73 181.08L159.99 180.34ZM183.621 192.208C184.175 191.654 185.079 191.654 185.633 192.208C185.967 192.542 186.411 192.726 186.883 192.726C187.355 192.726 187.799 192.542 188.133 192.208L188.912 191.429L188.668 191.185L187.889 191.964C187.335 192.518 186.431 192.518 185.877 191.964C185.188 191.275 184.066 191.275 183.377 191.964L182.639 192.702L182.883 192.946L183.621 192.208ZM223.277 194.984C223.831 194.43 224.735 194.43 225.289 194.984C225.623 195.318 226.067 195.502 226.539 195.502C227.011 195.502 227.455 195.318 227.789 194.984L228.568 194.205L228.324 193.961L227.545 194.74C226.991 195.294 226.087 195.294 225.533 194.74C224.844 194.051 223.722 194.051 223.033 194.74L222.295 195.478L222.539 195.722L223.277 194.984ZM196.794 200.387C196.794 199.603 197.432 198.964 198.216 198.964C199.191 198.964 199.984 198.171 199.984 197.196V196.152H199.639V197.196C199.639 197.98 199 198.619 198.216 198.619C197.241 198.619 196.448 199.412 196.448 200.387V201.489H196.793V200.387H196.794ZM224.623 184.592C224.623 183.808 225.261 183.169 226.045 183.169C227.02 183.169 227.813 182.376 227.813 181.401V180.357H227.468V181.401C227.468 182.185 226.829 182.824 226.045 182.824C225.07 182.824 224.277 183.617 224.277 184.592V185.694H224.622V184.592H224.623ZM170.608 187.26C170.608 186.475 171.246 185.837 172.031 185.837C173.006 185.837 173.799 185.044 173.799 184.069V183.025H173.454V184.069C173.454 184.853 172.815 185.492 172.031 185.492C171.056 185.492 170.263 186.286 170.263 187.26V188.362H170.608V187.26Z" fill="white"/>
<path d="M230.662 203.215C227.581 193.152 225.87 182.108 225.435 180.204C225.414 180.114 225.562 180.091 225.578 180.183C225.907 182.073 229.232 194.482 230.819 203.192C230.837 203.293 230.691 203.312 230.662 203.215Z" fill="#263238"/>
<path opacity="0.1" d="M194.497 208.72C185.407 205.53 173.287 199.22 163.137 192.61C153.127 186.09 152.067 180.3 156.057 178.43L194.497 208.72Z" fill="black"/>
<path d="M122.294 248.226C122.429 248.38 179.919 249.375 180.459 248.776C181.214 247.932 172.899 191.728 163.45 178.964C161.087 175.772 153.1 175.027 149.278 177.866C130.337 191.934 121.814 247.67 122.294 248.226Z" fill="#288AEA"/>
<path d="M175.99 219.39C175.62 219.07 175.38 218.6 175.38 218.06C175.38 217.28 174.74 216.64 173.95 216.64H172.85V216.29H173.95C174.68 216.29 175.31 216.74 175.58 217.37C175.67 217.58 175.72 217.8 175.72 218.04C175.72 218.05 175.72 218.05 175.72 218.06C175.72 218.27 175.76 218.46 175.84 218.64L175.99 219.39ZM135.68 201.64C135.08 201.64 134.56 201.26 134.36 200.73C134.3 200.87 134.24 201.01 134.19 201.15C134.5 201.65 135.05 201.99 135.68 201.99H136.73V201.64H135.68ZM163.08 196.857H162.036C161.252 196.857 160.613 196.219 160.613 195.434C160.613 194.459 159.82 193.666 158.845 193.666H157.743V194.011H158.845C159.629 194.011 160.268 194.65 160.268 195.434C160.268 196.409 161.061 197.202 162.036 197.202H163.08V196.857ZM149.795 224.652H148.751C147.967 224.652 147.328 224.014 147.328 223.229C147.328 222.254 146.535 221.461 145.56 221.461H144.458V221.806H145.56C146.344 221.806 146.983 222.444 146.983 223.229C146.983 224.204 147.776 224.997 148.751 224.997H149.795V224.652ZM166.339 248.115H165.295C164.511 248.115 163.872 247.476 163.872 246.692C163.872 245.717 163.079 244.924 162.104 244.924H161.002V245.269H162.104C162.888 245.269 163.527 245.907 163.527 246.692C163.527 247.667 164.32 248.46 165.295 248.46H166.339V248.115ZM130.397 246.417H129.353C128.569 246.417 127.93 245.779 127.93 244.994C127.93 244.019 127.137 243.226 126.162 243.226H125.06V243.571H126.162C126.946 243.571 127.585 244.209 127.585 244.994C127.585 245.969 128.378 246.762 129.353 246.762H130.397V246.417ZM164.996 229.912L164.258 229.174C163.703 228.619 163.703 227.717 164.258 227.162C164.592 226.828 164.776 226.384 164.776 225.912C164.776 225.44 164.592 224.996 164.258 224.662L163.479 223.883L163.235 224.127L164.014 224.906C164.569 225.461 164.569 226.363 164.014 226.918C163.325 227.607 163.325 228.729 164.014 229.418L164.752 230.156L164.996 229.912ZM159.99 180.34C159.44 179.79 159.44 178.89 159.99 178.33C160.33 178 160.51 177.56 160.51 177.08C160.51 177.03 160.51 176.99 160.5 176.94C160.38 176.89 160.26 176.84 160.13 176.8C160.22 177.25 160.1 177.74 159.75 178.09C159.06 178.78 159.06 179.9 159.75 180.59L160.49 181.33L160.73 181.08L159.99 180.34ZM136.209 218.792L135.471 218.054C134.916 217.499 134.916 216.597 135.471 216.042C135.805 215.708 135.989 215.264 135.989 214.792C135.989 214.32 135.805 213.876 135.471 213.542L134.692 212.763L134.448 213.007L135.227 213.786C135.782 214.341 135.782 215.243 135.227 215.798C134.538 216.487 134.538 217.609 135.227 218.298L135.965 219.036L136.209 218.792ZM171.296 235.892C171.85 235.338 172.754 235.338 173.308 235.892C173.642 236.226 174.086 236.41 174.558 236.41C175.03 236.41 175.474 236.226 175.808 235.892L176.587 235.113L176.343 234.869L175.564 235.648C175.01 236.202 174.106 236.202 173.552 235.648C172.863 234.959 171.741 234.959 171.052 235.648L170.314 236.386L170.558 236.63L171.296 235.892ZM134.691 232.578C135.245 232.024 136.149 232.024 136.703 232.578C137.037 232.912 137.481 233.096 137.953 233.096C138.425 233.096 138.869 232.912 139.203 232.578L139.982 231.799L139.738 231.555L138.959 232.334C138.405 232.888 137.501 232.888 136.947 232.334C136.258 231.645 135.136 231.645 134.447 232.334L133.709 233.072L133.953 233.316L134.691 232.578ZM145.553 207.228C146.107 206.674 147.011 206.674 147.565 207.228C148.255 207.918 149.377 207.916 150.065 207.228L150.844 206.449L150.6 206.205L149.821 206.984C149.267 207.537 148.365 207.539 147.809 206.984C147.12 206.295 145.998 206.295 145.309 206.984L144.571 207.722L144.815 207.966L145.553 207.228ZM141.242 247.485C141.779 246.948 142.716 246.947 143.254 247.485C143.588 247.819 144.032 248.003 144.504 248.003C144.976 248.003 145.42 247.819 145.754 247.485L146.533 246.706L146.289 246.462L145.51 247.241C144.956 247.795 144.052 247.795 143.498 247.241C143.164 246.907 142.72 246.723 142.248 246.723C141.775 246.723 141.332 246.907 140.998 247.241L140.259 247.979L140.503 248.223L141.242 247.485ZM150.782 238.802C150.782 238.018 151.421 237.379 152.205 237.379C153.18 237.379 153.973 236.586 153.973 235.611V234.567H153.628V235.611C153.628 236.395 152.989 237.034 152.205 237.034C151.23 237.034 150.437 237.827 150.437 238.802V239.904H150.782V238.802ZM158.989 213.614C158.989 212.83 159.627 212.191 160.412 212.191C161.387 212.191 162.18 211.397 162.18 210.423V209.379H161.835V210.423C161.835 211.208 161.197 211.846 160.412 211.846C159.437 211.846 158.644 212.639 158.644 213.614V214.716H158.989V213.614ZM146.284 192C146.284 191.216 146.923 190.577 147.707 190.577C148.682 190.577 149.475 189.784 149.475 188.809V187.765H149.13V188.809C149.13 189.593 148.492 190.232 147.707 190.232C146.732 190.232 145.939 191.025 145.939 192V193.102H146.284V192Z" fill="white"/>
<path d="M164.644 240.103L195.421 244.204L207.04 201.42L176.264 197.319L164.644 240.103Z" fill="#455A64"/>
<path d="M166.156 240.304L196.933 244.405L208.552 201.622L177.776 197.521L166.156 240.304Z" fill="#263238"/>
<path d="M191.65 219.596C191.285 221.23 189.649 222.376 187.996 222.156C186.343 221.936 185.298 220.432 185.663 218.798C186.028 217.164 187.664 216.018 189.317 216.238C190.971 216.459 192.015 217.962 191.65 219.596Z" fill="white"/>
<path d="M141.14 184.92C123.422 203.275 108.669 241.628 117.088 245.31C124.781 248.675 149.271 245.835 159.352 243.52C162.313 242.84 156.554 219.897 153.387 220.62C149.559 221.494 139.783 222.817 139.39 222.785C138.548 222.719 147.776 197.188 150.726 187.384C154.835 173.725 147.793 178.027 141.14 184.92Z" fill="#FFBE9D"/>
<path d="M149.534 223.165C149.534 223.165 156.529 217.638 161.272 214.238C163.919 212.341 168.747 209.495 171.328 208.99C175.19 208.236 191.822 207.55 192.075 211.579C192.304 215.226 177.94 214.001 177.94 214.001C177.94 214.001 192.543 213.956 192.012 218.398C191.481 222.84 175.436 219.298 175.436 219.298C175.436 219.298 190.441 219.588 189.169 224.082C188.207 227.478 173.494 225.089 173.494 225.089C173.494 225.089 186.39 225.427 185.551 228.963C184.624 232.87 170.905 231.516 170.905 231.516C167.261 240.144 162.274 243.109 158.029 244.177C157.042 244.426 149.534 223.165 149.534 223.165Z" fill="#FFBE9D"/>
<path d="M173.58 213.714C184.334 212.859 189.87 215.735 189.708 215.688C185.868 214.587 179.732 214.187 178.016 214.102C176.304 214.017 175.287 213.865 173.575 213.779C173.531 213.777 173.539 213.717 173.58 213.714Z" fill="#263238"/>
<path d="M172.469 219.882C177.534 219.147 183.456 219.972 185.452 220.576C185.613 220.625 185.554 220.679 185.385 220.666C183.206 220.498 174.641 219.997 172.465 219.935C172.43 219.933 172.436 219.887 172.469 219.882Z" fill="#263238"/>
<path d="M171.153 225.128C175.731 224.811 177.814 225.131 181.188 225.961C181.35 226.001 181.256 226.086 181.086 226.069C177.755 225.729 175.145 225.439 171.157 225.245C171.096 225.242 171.082 225.133 171.153 225.128Z" fill="#263238"/>
<path d="M140.299 222.055C139.102 221.018 148.892 196.993 151.603 186.038C154.313 175.083 149.24 175.645 141.126 184.418C132.435 193.816 117.941 214.636 114.499 236.188C113.424 242.919 112.012 247.719 127.601 247.577C143.599 247.432 154.671 245.442 154.671 245.442L151.48 220.768C151.48 220.768 140.645 222.355 140.299 222.055Z" fill="#288AEA"/>
<path d="M136.727 201.988H135.683C134.708 201.988 133.915 201.195 133.915 200.22C133.915 199.436 133.277 198.797 132.492 198.797H131.39V198.452H132.492C133.467 198.452 134.26 199.245 134.26 200.22C134.26 201.004 134.899 201.643 135.683 201.643H136.727V201.988ZM149.795 224.652H148.751C147.967 224.652 147.328 224.014 147.328 223.229C147.328 222.254 146.535 221.461 145.56 221.461H144.458V221.806H145.56C146.344 221.806 146.983 222.444 146.983 223.229C146.983 224.204 147.776 224.997 148.751 224.997H149.795V224.652ZM130.397 246.417H129.353C128.569 246.417 127.93 245.779 127.93 244.994C127.93 244.019 127.137 243.226 126.162 243.226H125.06V243.571H126.162C126.946 243.571 127.585 244.209 127.585 244.994C127.585 245.969 128.378 246.762 129.353 246.762H130.397V246.417ZM136.209 218.792L135.471 218.054C134.916 217.499 134.916 216.597 135.471 216.042C135.805 215.708 135.989 215.264 135.989 214.792C135.989 214.32 135.805 213.876 135.471 213.542L134.692 212.763L134.448 213.007L135.227 213.786C135.782 214.341 135.782 215.243 135.227 215.798C134.538 216.487 134.538 217.609 135.227 218.298L135.965 219.036L136.209 218.792ZM117.364 237.762L116.626 237.024C116.071 236.469 116.071 235.567 116.626 235.012C116.96 234.678 117.144 234.234 117.144 233.762C117.144 233.29 116.96 232.846 116.626 232.512L115.847 231.733L115.603 231.977L116.382 232.756C116.937 233.311 116.937 234.213 116.382 234.768C115.693 235.457 115.693 236.579 116.382 237.268L117.12 238.006L117.364 237.762ZM134.691 232.578C135.245 232.024 136.149 232.024 136.703 232.578C137.037 232.912 137.481 233.096 137.953 233.096C138.425 233.096 138.869 232.912 139.203 232.578L139.982 231.799L139.738 231.555L138.959 232.334C138.405 232.888 137.501 232.888 136.947 232.334C136.258 231.645 135.136 231.645 134.447 232.334L133.709 233.072L133.953 233.316L134.691 232.578ZM124.76 209.61L123.98 210.39C123.74 210.63 123.44 210.77 123.14 210.79L122.96 211.15C123.42 211.16 123.88 210.99 124.23 210.64L125.01 209.86L124.76 209.61ZM141.35 246.98C141.89 246.95 142.4 246.9 142.91 246.86C142.71 246.77 142.48 246.72 142.25 246.72C141.92 246.72 141.62 246.81 141.35 246.98ZM146.29 246.46L146.2 246.55C146.26 246.54 146.31 246.54 146.36 246.53L146.29 246.46ZM153.48 236.24C153.25 236.71 152.77 237.03 152.21 237.03C151.23 237.03 150.44 237.83 150.44 238.8V239.9H150.78V238.8C150.78 238.02 151.42 237.38 152.21 237.38C152.75 237.38 153.23 237.14 153.55 236.75V236.74L153.48 236.24ZM146.284 192C146.284 191.216 146.923 190.577 147.707 190.577C148.682 190.577 149.475 189.784 149.475 188.809V187.765H149.13V188.809C149.13 189.593 148.492 190.232 147.707 190.232C146.732 190.232 145.939 191.025 145.939 192V193.102H146.284V192ZM122.216 225.962C122.216 225.177 122.855 224.539 123.639 224.539C124.614 224.539 125.407 223.746 125.407 222.771V221.727H125.062V222.771C125.062 223.555 124.424 224.194 123.639 224.194C122.664 224.194 121.871 224.988 121.871 225.962V227.064H122.216V225.962Z" fill="white"/>
<path d="M149.171 245.195C147.259 235.429 146.731 224.875 146.508 223.041C146.498 222.954 146.638 222.947 146.645 223.035C146.77 224.844 148.681 236.84 149.321 245.188C149.329 245.285 149.19 245.289 149.171 245.195Z" fill="#263238"/>
<path d="M128.433 223.876C129.373 223.572 130.404 223.456 131.377 223.295C132.295 223.143 133.209 222.974 134.126 222.82C134.523 222.753 134.919 222.689 135.316 222.623C135.279 222.618 135.241 222.615 135.204 222.61C134.674 222.533 134.144 222.453 133.614 222.369C133.085 222.285 132.558 222.163 132.025 222.116C131.937 222.108 131.944 221.968 132.029 221.98C132.557 222.055 133.091 222.055 133.623 222.093C134.175 222.132 134.726 222.177 135.278 222.223C135.762 222.264 136.244 222.33 136.726 222.389C137.612 222.247 138.5 222.117 139.389 221.996C139.789 220.251 140.419 218.525 140.968 216.823C141.544 215.041 142.137 213.266 142.762 211.501C143.376 209.768 144.023 208.046 144.707 206.34C145.049 205.485 146.889 200.235 147.488 198.867C147.525 198.781 147.636 198.823 147.61 198.923C147.255 200.309 145.378 205.699 145.103 206.574C144.902 207.211 144.695 207.846 144.492 208.482C144.517 208.451 144.544 208.418 144.568 208.387C144.93 207.917 145.289 207.445 145.647 206.972C146.372 206.013 147.09 205.041 147.718 204.016C147.772 203.928 147.902 204.012 147.853 204.101C147.257 205.169 146.686 206.249 146.052 207.295C145.736 207.816 145.406 208.331 145.056 208.83C144.721 209.308 144.379 209.849 143.947 210.244C143.94 210.25 143.932 210.247 143.925 210.253C143.757 210.775 143.593 211.298 143.424 211.82C142.857 213.567 142.285 215.312 141.724 217.06C141.21 218.66 140.765 220.311 140.18 221.889C141.999 221.659 143.822 221.462 145.644 221.254C146.574 221.148 147.504 221.05 148.435 220.951C149.43 220.845 150.473 220.856 151.456 220.69C151.543 220.675 151.573 220.813 151.488 220.822C150.508 220.926 149.515 221.217 148.539 221.382C147.622 221.537 146.704 221.693 145.786 221.841C143.841 222.155 141.9 222.482 139.951 222.767C138.03 223.048 136.099 223.247 134.169 223.454C133.202 223.558 132.234 223.648 131.267 223.753C130.341 223.854 129.375 224.007 128.443 223.971C128.386 223.967 128.383 223.892 128.433 223.876Z" fill="#263238"/>
<path d="M122.438 247.345C132.899 247.435 147.47 246.318 154.48 245.439C154.576 245.427 154.594 245.558 154.494 245.573C152.934 245.812 138.828 248.586 122.428 247.671C122.214 247.659 122.231 247.343 122.438 247.345Z" fill="#263238"/>
<path d="M161.992 187.074C159.568 187.962 153.462 183.52 151.823 179.455C151.712 179.176 154.037 168.834 154.285 166.737C154.334 166.306 167.06 171.487 167.06 171.487C167.06 171.487 165.247 175.73 164.838 179.389C164.807 179.695 164.804 179.983 164.827 180.26C164.827 180.3 164.832 180.349 164.829 180.405C164.902 182.072 164.684 186.089 161.992 187.074Z" fill="#FFBE9D"/>
<path d="M155.124 166.905C155.242 170.144 156.216 179.294 163.471 180.322C163.959 180.385 164.408 180.418 164.829 180.404C164.827 180.352 164.826 180.301 164.822 180.258C164.807 179.983 164.81 179.692 164.841 179.388C165.248 175.729 167.057 171.483 167.057 171.483C167.057 171.483 157.977 167.789 155.124 166.905Z" fill="#263238"/>
<path d="M152.627 153.002C151.425 157.804 154.619 171.335 158.138 174.208C163.239 178.374 171.242 178.388 174.693 172.337C178.039 166.471 173.564 148.911 169.667 146.335C163.926 142.542 154.401 145.909 152.627 153.002Z" fill="#FFBE9D"/>
<path d="M166.629 161.081C166.614 161.048 166.568 161.14 166.578 161.177C166.813 162.074 166.93 163.141 166.181 163.628C166.158 163.643 166.171 163.688 166.2 163.677C167.165 163.308 166.995 161.893 166.629 161.081Z" fill="#263238"/>
<path d="M165.607 160.321C164.128 160.542 164.679 163.483 166.049 163.279C167.397 163.077 166.846 160.136 165.607 160.321Z" fill="#263238"/>
<path d="M171.638 160.076C171.638 160.04 171.717 160.106 171.723 160.143C171.865 161.06 172.181 162.085 173.062 162.234C173.089 162.239 173.095 162.285 173.064 162.286C172.032 162.333 171.625 160.967 171.638 160.076Z" fill="#263238"/>
<path d="M172.273 158.972C173.718 158.587 174.382 161.504 173.044 161.861C171.727 162.213 171.062 159.295 172.273 158.972Z" fill="#263238"/>
<path d="M164.13 159.682C164.512 159.506 164.835 159.28 165.194 159.068C165.6 158.828 165.948 158.678 166.16 158.235C166.274 157.997 166.14 157.633 165.919 157.501C165.405 157.193 164.835 157.364 164.335 157.633C163.792 157.925 163.449 158.289 163.213 158.857C162.983 159.407 163.626 159.913 164.13 159.682Z" fill="#263238"/>
<path d="M172.97 156.642C172.55 156.652 172.161 156.591 171.744 156.557C171.274 156.519 170.896 156.538 170.51 156.232C170.303 156.068 170.263 155.683 170.404 155.466C170.731 154.963 171.318 154.867 171.885 154.889C172.501 154.913 172.97 155.089 173.431 155.496C173.879 155.891 173.525 156.629 172.97 156.642Z" fill="#263238"/>
<path d="M167.076 169.529C167.334 169.701 167.607 169.954 167.943 169.92C168.265 169.887 168.61 169.675 168.88 169.507C168.907 169.491 168.942 169.516 168.928 169.546C168.757 169.94 168.3 170.252 167.864 170.257C167.438 170.262 167.167 169.944 166.997 169.585C166.972 169.536 167.038 169.503 167.076 169.529Z" fill="#263238"/>
<path d="M167.523 166.621C168.181 167.316 169.012 167.608 169.852 167.614C170.228 167.619 170.611 167.56 170.977 167.456C171.05 167.441 171.122 167.419 171.186 167.392C171.251 167.371 171.31 167.353 171.38 167.324C171.483 167.289 171.525 167.19 171.525 167.086L171.524 167.079C171.517 167.046 171.512 167.019 171.498 166.987C171.498 166.987 171.498 166.987 171.497 166.98L171.48 166.9C171.368 166.195 171.1 165.141 171.1 165.141C171.38 165.221 172.797 165.565 172.708 165.202C171.959 162.202 171.126 158.865 169.747 156.038C169.707 155.942 169.558 155.994 169.585 156.092C170.191 159.004 171.304 161.79 171.959 164.705C171.512 164.625 170.777 164.459 170.411 164.535C170.317 164.582 170.965 166.563 170.99 166.884C170.99 166.884 170.993 166.897 170.99 166.919C169.84 167.29 168.884 167.101 167.592 166.523C167.515 166.484 167.455 166.559 167.523 166.621Z" fill="#263238"/>
<path d="M170.497 167.178C170.497 167.178 170.032 168.134 169.237 168.596C168.944 168.767 168.615 168.875 168.243 168.847C167.48 168.792 167.336 168.128 167.363 167.531C167.383 167.041 167.525 166.595 167.525 166.595C167.525 166.595 168.774 167.391 170.497 167.178Z" fill="#263238"/>
<path d="M169.237 168.596C168.944 168.767 168.615 168.875 168.243 168.847C167.48 168.792 167.336 168.128 167.363 167.531C168.158 167.465 169.029 167.85 169.237 168.596Z" fill="#FF9CBD"/>
<path d="M154.204 165.403C154.204 165.403 148.971 157.658 149.192 153.02C149.292 150.923 152.065 149.376 152.065 149.376C152.065 149.376 151.089 146.88 153.319 144.56C155.67 142.114 161.672 142.337 161.672 142.337C161.672 142.337 165.266 136.547 170.857 138.493C176.448 140.44 173.187 146.83 173.187 146.83C173.187 146.83 175.341 149.583 170.54 152.059C165.866 154.47 155.981 152.82 155.981 152.82C155.981 152.82 157.02 157.791 156.334 162.954C156.079 164.867 154.204 165.403 154.204 165.403Z" fill="#263238"/>
<path d="M162.621 142.363C161.385 141.898 160.047 141.783 158.731 141.851C157.564 141.911 156.369 142.116 155.286 142.567C153.35 143.373 151.669 144.913 151.446 147.095C151.333 148.192 151.666 149.242 152.362 150.09C152.39 150.125 152.441 150.073 152.411 150.039C151.065 148.534 151.61 146.06 152.854 144.681C154.261 143.121 156.498 142.445 158.53 142.258C159.89 142.132 161.247 142.282 162.592 142.483C162.67 142.494 162.695 142.39 162.621 142.363Z" fill="#263238"/>
<path d="M174.908 140.943C174.376 139.432 173.012 138.511 171.511 138.113C169.801 137.659 167.949 137.854 166.332 138.552C164.684 139.264 163.301 140.466 162.245 141.909C162.222 141.941 162.277 141.982 162.301 141.95C164.241 139.411 167.397 137.861 170.616 138.376C172.056 138.606 173.517 139.27 174.245 140.598C174.914 141.819 174.862 143.416 174.325 144.674C173.661 146.228 172.349 147.444 170.978 148.382C170.946 148.403 170.976 148.453 171.009 148.433C172.343 147.627 173.58 146.627 174.371 145.261C175.12 143.972 175.412 142.373 174.908 140.943Z" fill="#263238"/>
<path d="M171.738 152.26C169.617 153.303 167.254 153.727 164.906 153.797C162.447 153.87 160.018 153.621 157.603 153.164C156.201 152.899 154.81 152.582 153.426 152.239C153.381 152.228 153.367 152.293 153.409 152.307C155.862 153.164 158.361 153.903 160.946 154.229C163.354 154.532 165.753 154.436 168.104 153.807C169.385 153.465 170.611 152.955 171.766 152.305C171.796 152.288 171.768 152.245 171.738 152.26Z" fill="#263238"/>
<path d="M156.103 163.972C156.103 163.972 152.704 159.78 150.781 161.023C148.857 162.265 151.633 168.495 154.045 169.202C156.457 169.91 157.156 167.689 157.156 167.689L156.103 163.972Z" fill="#FFBE9D"/>
<path d="M151.621 162.788C151.583 162.788 151.579 162.841 151.613 162.852C153.308 163.402 154.285 164.868 155.005 166.409C154.471 165.834 153.78 165.548 153.005 166.189C152.964 166.223 153.01 166.287 153.056 166.274C153.721 166.081 154.216 166.164 154.711 166.672C155.061 167.032 155.316 167.5 155.579 167.926C155.666 168.068 155.927 167.97 155.859 167.804C155.854 167.792 155.848 167.779 155.843 167.767C155.734 165.663 153.891 162.839 151.621 162.788Z" fill="#263238"/>
<path d="M278.143 146.202C273.098 140.413 268.376 134.067 269.068 127.06C269.519 122.519 272.647 118 278.143 118C283.639 118 286.767 122.519 287.218 127.06C287.918 134.068 283.188 140.413 278.143 146.202Z" fill="#288AEA"/>
<g clip-path="url(#clip0_94_1766)">
<path d="M275.254 131.722C273.467 129.935 273.467 127.001 275.254 125.214" stroke="white" stroke-linecap="round" stroke-linejoin="round"/>
<path d="M276.583 126.497C276.148 126.948 275.876 127.531 275.81 128.153C275.743 128.776 275.887 129.403 276.217 129.935" stroke="white" stroke-linecap="round" stroke-linejoin="round"/>
<path d="M278.508 129.385C279.015 129.385 279.425 128.974 279.425 128.468C279.425 127.962 279.015 127.551 278.508 127.551C278.002 127.551 277.592 127.962 277.592 128.468C277.592 128.974 278.002 129.385 278.508 129.385Z" stroke="white" stroke-linecap="round" stroke-linejoin="round"/>
<path d="M280.433 126.543C281.35 127.46 281.469 128.885 280.8 129.967" stroke="white" stroke-linecap="round" stroke-linejoin="round"/>
<path d="M281.763 125.214C282.188 125.638 282.525 126.142 282.755 126.696C282.985 127.251 283.103 127.845 283.103 128.445C283.103 129.046 282.985 129.64 282.755 130.194C282.525 130.749 282.188 131.252 281.763 131.676" stroke="white" stroke-linecap="round" stroke-linejoin="round"/>
<path d="M277.362 132.593H279.654" stroke="white" stroke-linecap="round" stroke-linejoin="round"/>
<path d="M276.675 134.426L278.508 129.385L280.341 134.426" stroke="white" stroke-linecap="round" stroke-linejoin="round"/>
</g>
<path d="M213.143 261.202C208.098 255.413 203.376 249.067 204.068 242.06C204.519 237.519 207.647 233 213.143 233C218.639 233 221.767 237.519 222.218 242.06C222.918 249.068 218.188 255.413 213.143 261.202Z" fill="#288AEA"/>
<g clip-path="url(#clip1_94_1766)">
<path d="M210.254 246.722C208.467 244.935 208.467 242.001 210.254 240.214" stroke="white" stroke-linecap="round" stroke-linejoin="round"/>
<path d="M211.583 241.497C211.148 241.948 210.876 242.531 210.81 243.153C210.743 243.776 210.887 244.403 211.217 244.935" stroke="white" stroke-linecap="round" stroke-linejoin="round"/>
<path d="M213.508 244.385C214.015 244.385 214.425 243.974 214.425 243.468C214.425 242.962 214.015 242.551 213.508 242.551C213.002 242.551 212.592 242.962 212.592 243.468C212.592 243.974 213.002 244.385 213.508 244.385Z" stroke="white" stroke-linecap="round" stroke-linejoin="round"/>
<path d="M215.433 241.543C216.35 242.46 216.469 243.885 215.8 244.967" stroke="white" stroke-linecap="round" stroke-linejoin="round"/>
<path d="M216.763 240.214C217.188 240.638 217.525 241.142 217.755 241.696C217.985 242.251 218.103 242.845 218.103 243.445C218.103 244.046 217.985 244.64 217.755 245.194C217.525 245.749 217.188 246.252 216.763 246.676" stroke="white" stroke-linecap="round" stroke-linejoin="round"/>
<path d="M212.362 247.593H214.654" stroke="white" stroke-linecap="round" stroke-linejoin="round"/>
<path d="M211.675 249.426L213.508 244.385L215.341 249.426" stroke="white" stroke-linecap="round" stroke-linejoin="round"/>
</g>
<path d="M209.143 364.202C204.098 358.413 199.376 352.067 200.068 345.06C200.519 340.519 203.647 336 209.143 336C214.639 336 217.767 340.519 218.218 345.06C218.918 352.068 214.188 358.413 209.143 364.202Z" fill="#288AEA"/>
<g clip-path="url(#clip2_94_1766)">
<path d="M206.254 349.722C204.467 347.935 204.467 345.001 206.254 343.214" stroke="white" stroke-linecap="round" stroke-linejoin="round"/>
<path d="M207.583 344.497C207.148 344.948 206.876 345.531 206.81 346.153C206.743 346.776 206.887 347.403 207.217 347.935" stroke="white" stroke-linecap="round" stroke-linejoin="round"/>
<path d="M209.508 347.385C210.015 347.385 210.425 346.974 210.425 346.468C210.425 345.962 210.015 345.552 209.508 345.552C209.002 345.552 208.592 345.962 208.592 346.468C208.592 346.974 209.002 347.385 209.508 347.385Z" stroke="white" stroke-linecap="round" stroke-linejoin="round"/>
<path d="M211.433 344.543C212.35 345.46 212.469 346.885 211.8 347.967" stroke="white" stroke-linecap="round" stroke-linejoin="round"/>
<path d="M212.763 343.214C213.188 343.638 213.525 344.142 213.755 344.696C213.985 345.251 214.103 345.845 214.103 346.445C214.103 347.046 213.985 347.64 213.755 348.194C213.525 348.749 213.188 349.252 212.763 349.676" stroke="white" stroke-linecap="round" stroke-linejoin="round"/>
<path d="M208.362 350.593H210.654" stroke="white" stroke-linecap="round" stroke-linejoin="round"/>
<path d="M207.675 352.426L209.508 347.385L211.341 352.426" stroke="white" stroke-linecap="round" stroke-linejoin="round"/>
</g>
<path d="M313.936 205.803C308.891 200.014 304.169 193.668 304.861 186.661C305.312 182.12 308.44 177.601 313.936 177.601C319.432 177.601 322.56 182.12 323.011 186.661C323.71 193.668 318.981 200.013 313.936 205.803Z" fill="#288AEA"/>
<g clip-path="url(#clip3_94_1766)">
<path d="M314 194.333H314.004" stroke="white" stroke-linecap="round" stroke-linejoin="round"/>
<path d="M312.542 192.845C312.931 192.464 313.455 192.25 314 192.25C314.545 192.25 315.069 192.464 315.458 192.845" stroke="white" stroke-linecap="round" stroke-linejoin="round"/>
<path d="M311.083 191.358C311.674 190.779 312.424 190.389 313.238 190.237" stroke="white" stroke-linecap="round" stroke-linejoin="round"/>
<path d="M316.917 191.358C316.666 191.112 316.385 190.899 316.081 190.723" stroke="white" stroke-linecap="round" stroke-linejoin="round"/>
<path d="M309.833 189.675C310.349 189.214 310.937 188.842 311.574 188.574" stroke="white" stroke-linecap="round" stroke-linejoin="round"/>
<path d="M318.167 189.675C317.531 189.107 316.786 188.674 315.977 188.404C315.168 188.135 314.313 188.033 313.463 188.107" stroke="white" stroke-linecap="round" stroke-linejoin="round"/>
<path d="M309.833 186.833L318.167 195.167" stroke="white" stroke-linecap="round" stroke-linejoin="round"/>
</g>
<path d="M301.143 393.202C296.098 387.413 291.376 381.067 292.068 374.06C292.519 369.519 295.647 365 301.143 365C306.639 365 309.767 369.519 310.218 374.06C310.917 381.067 306.188 387.412 301.143 393.202Z" fill="#288AEA"/>
<g clip-path="url(#clip4_94_1766)">
<path d="M301.207 381.732H301.211" stroke="white" stroke-linecap="round" stroke-linejoin="round"/>
<path d="M299.748 380.244C300.137 379.863 300.661 379.649 301.206 379.649C301.752 379.649 302.275 379.863 302.665 380.244" stroke="white" stroke-linecap="round" stroke-linejoin="round"/>
<path d="M298.29 378.757C298.881 378.178 299.631 377.787 300.444 377.636" stroke="white" stroke-linecap="round" stroke-linejoin="round"/>
<path d="M304.123 378.757C303.872 378.511 303.591 378.298 303.287 378.122" stroke="white" stroke-linecap="round" stroke-linejoin="round"/>
<path d="M297.04 377.074C297.555 376.613 298.143 376.241 298.78 375.973" stroke="white" stroke-linecap="round" stroke-linejoin="round"/>
<path d="M305.373 377.074C304.738 376.506 303.993 376.073 303.184 375.803C302.375 375.534 301.519 375.432 300.67 375.506" stroke="white" stroke-linecap="round" stroke-linejoin="round"/>
<path d="M297.04 374.232L305.373 382.566" stroke="white" stroke-linecap="round" stroke-linejoin="round"/>
</g>
<defs>
<clipPath id="clip0_94_1766">
<rect width="11" height="11" fill="white" transform="translate(272.914 125.214)"/>
</clipPath>
<clipPath id="clip1_94_1766">
<rect width="11" height="11" fill="white" transform="translate(207.914 240.214)"/>
</clipPath>
<clipPath id="clip2_94_1766">
<rect width="11" height="11" fill="white" transform="translate(203.914 343.214)"/>
</clipPath>
<clipPath id="clip3_94_1766">
<rect width="10" height="10" fill="white" transform="translate(309 186)"/>
</clipPath>
<clipPath id="clip4_94_1766">
<rect width="10" height="10" fill="white" transform="translate(296.207 373.399)"/>
</clipPath>
</defs>
</svg>
